<svg width="25" height="23" viewBox="0 0 25 23" fill="none" xmlns="http://www.w3.org/2000/svg">
<path d="M11.1969 0.414846C9.18671 0.535828 7.10275 1.11122 5.43066 2.00235C4.98497 2.23841 4.13049 2.78725 3.72783 3.09708C3.276 3.44231 2.31701 4.3718 1.9789 4.7908C0.921549 6.10389 0.30681 7.46123 0.0670619 9.02217C-0.00670674 9.49724 -0.0220752 10.4533 0.0332513 10.9638C0.236115 12.7785 0.970728 14.3837 2.2709 15.8414C2.74118 16.3725 3.60796 17.1338 4.14893 17.4938C4.36409 17.6384 4.37023 17.662 4.36716 18.2315C4.36716 18.7124 4.29339 19.1521 4.12741 19.6744C4.02598 19.999 3.7555 20.6422 3.66636 20.772C3.64484 20.8075 3.60181 20.9107 3.57107 21.0081C3.42661 21.4832 3.70017 22.0379 4.17967 22.2445C4.44093 22.3566 4.68682 22.3714 5.09563 22.2887C6.19908 22.0733 7.8097 21.3415 9.92133 20.0904L10.4285 19.7894L10.8281 19.8278C11.3229 19.875 12.7583 19.8839 13.2563 19.8396C14.704 19.7157 16.0072 19.4265 17.2982 18.9396C17.7685 18.7626 18.7859 18.2728 19.2438 18.0013C21.0174 16.9449 22.419 15.5197 23.2581 13.9175C24.841 10.887 24.4199 7.43172 22.1331 4.68753C21.7858 4.26852 21.0051 3.51608 20.5625 3.1738C18.4908 1.56269 15.9396 0.62435 13.1026 0.423698C12.7122 0.397142 11.575 0.391241 11.1969 0.414846Z" fill="black"/>
</svg>
