<svg width="58" height="105" viewBox="0 0 58 105" fill="none" xmlns="http://www.w3.org/2000/svg">
<path fill-rule="evenodd" clip-rule="evenodd" d="M57.3922 13.9275C56.8558 17.1546 57.2866 20.4065 56.6501 23.7707C55.8834 27.8259 53.307 31.6797 52.3861 35.7614C52.0647 37.1853 52.0239 39.054 51.83 40.7725C51.6417 42.4386 51.1001 44.3972 51.274 45.7835C51.5628 48.0939 53.4078 50.8079 54.4258 53.3003C55.2736 55.3777 57.1635 59.0074 57.3922 60.996C57.5921 62.7338 57.0389 65.1572 56.8354 67.26C56.6326 69.3638 56.2853 71.5199 56.094 73.5239C55.6732 77.942 55.7978 82.602 54.9819 86.4096C54.3954 89.144 52.917 91.5635 52.3861 94.1053C51.7466 97.1679 51.9149 100.704 51.274 103.949C48.7483 103.956 46.3112 104.05 44.0428 104.306C38.5588 97.4674 32.2893 90.1678 26.0595 83.5461C24.2422 81.6143 21.9012 77.7924 19.5705 76.9243C16.9695 75.9555 13.0374 76.9393 11.4125 74.4189C9.75953 72.674 8.02903 71.0035 6.2218 69.4078C6.16693 69.0428 5.71987 69.0571 5.665 68.6921C4.19734 67.1261 2.6522 65.6346 1.03033 64.2178C0.109471 60.7384 1.93264 58.4256 2.32783 55.6275C2.75637 55.027 2.39307 53.6618 2.51318 52.7643C2.51318 51.2727 2.51318 49.7815 2.51318 48.29C1.80364 43.4575 3.60012 39.2065 3.44071 35.046C3.27056 30.6143 1.49965 26.5298 1.21568 21.9814C5.5738 21.5072 4.0194 14.4013 4.55286 9.27459C4.86352 6.29257 6.57286 4.29787 6.96322 2.29495C10.6696 0.682442 15.3406 0.0018006 21.0533 0.326377C21.8607 0.210789 23.1494 0.5597 23.6491 0.147448C24.9284 0.366457 26.5966 -0.139911 27.5423 0.147448C30.9447 1.18058 28.8587 7.61127 31.2502 9.09566C32.8821 10.1088 36.4562 9.53117 38.8521 9.63245C41.6106 9.74983 44.1529 9.85933 46.6386 9.9903C49.9672 11.5502 51.7433 14.6077 57.3922 13.9275Z" fill="white"/>
</svg>
