<svg width="64" height="71" viewBox="0 0 64 71" fill="none" xmlns="http://www.w3.org/2000/svg">
<path fill-rule="evenodd" clip-rule="evenodd" d="M32.6055 8.20793C39.024 3.60588 49.6027 3.01971 58.1907 0.512207C59.943 18.6867 61.999 36.567 63.9382 54.5608C61.5082 59.9111 59.3636 65.5363 56.8932 70.8472C48.4231 67.4497 39.4196 64.5676 30.3804 61.7197C29.6405 58.9148 28.8164 56.1905 27.7854 53.6662C27.4132 53.1301 26.2636 53.3455 25.375 53.3083C25.1181 52.9003 24.0849 53.2414 23.5207 53.1294C21.6931 53.2389 19.8347 53.0234 17.9593 52.9504C16.0646 52.8767 13.7613 52.3496 12.3971 52.7715C10.5542 53.3412 10.7355 55.8204 9.0599 56.709C8.50382 56.709 7.94703 56.709 7.39096 56.709C7.13405 56.3007 6.10087 56.6421 5.53739 56.5301C2.9802 56.3139 2.17351 54.4084 0.53125 53.3087C0.53125 52.593 0.53125 51.8769 0.53125 51.1612C0.957571 50.7374 0.597979 49.5551 0.716607 48.8347C0.716607 47.6416 0.716607 46.4485 0.716607 45.2554C0.0578479 42.1006 3.19706 40.9222 4.23914 38.8126C5.42098 36.4203 5.15666 34.2002 6.27881 31.654C11.1481 28.181 15.8384 24.5359 22.2232 22.5265C24.4416 19.1795 25.8651 15.0655 28.5269 12.1465C29.9634 10.9076 31.3232 9.59498 32.6055 8.20793Z" fill="white"/>
</svg>
