<svg width="97" height="68" viewBox="0 0 97 68" fill="none" xmlns="http://www.w3.org/2000/svg">
<path fill-rule="evenodd" clip-rule="evenodd" d="M32.696 0.202148C37.4708 0.851301 42.3591 1.04419 47.7133 0.738934C49.8153 0.620483 52.4091 0.976909 54.2023 0.560006C54.8933 0.571099 55.3748 0.379646 55.8709 0.202148C58.2824 2.67065 60.6801 5.30912 63.1016 8.07715C65.3611 10.6591 67.8805 13.8673 71.0739 15.4147C73.9247 16.7963 77.5632 16.4957 81.4561 17.3836C82.0515 19.7322 82.4344 22.2855 83.31 24.3632C85.8064 24.9365 89.2166 24.6273 91.8383 25.0789C93.3901 27.8767 94.6984 30.9084 96.1023 33.8486C94.539 37.8956 93.2496 42.9292 92.5797 48.5243C91.8283 54.8033 91.862 59.9274 93.3212 64.6315C90.4596 65.9258 88.1909 67.792 83.31 67.1372C82.1979 67.1372 81.0854 67.1372 79.9729 67.1372C78.3869 66.0539 76.9626 64.844 75.3382 63.5579C73.9921 62.4922 71.7211 61.2969 70.8885 59.7993C69.5788 57.4439 69.3971 54.0196 68.6638 51.2089C67.915 48.3386 67.0383 45.611 66.2538 42.7972C61.6173 41.1875 57.5209 39.0572 52.5341 37.7857C49.6295 37.7857 46.725 37.7857 43.8204 37.7857C42.0273 37.9045 39.7429 37.5488 38.2586 37.965C35.7867 37.965 33.3147 37.965 30.8428 37.965C28.8028 38.0835 26.2708 37.7274 24.5392 38.1439C22.7883 39.6155 22.6638 42.6572 21.3874 44.5868C18.3357 46.7873 14.1433 45.6103 10.4487 46.7343C6.95548 47.7975 4.27002 51.6702 0.622559 51.5668C1.07335 48.8997 1.40106 46.1138 1.92006 43.5129C3.69949 42.3849 4.74454 40.3391 6.92582 39.3968C10.1959 37.984 14.4117 38.0255 18.2352 36.8911C19.1672 33.6843 21.2428 31.0237 21.9431 27.7636C22.5996 24.7086 21.8593 21.661 22.4992 18.2782C22.7349 17.0329 23.7333 15.6888 24.3531 14.3411C26.7983 9.02476 29.7433 4.0917 32.696 0.202148Z" fill="white"/>
</svg>
