<svg width="97" height="125" viewBox="0 0 97 125" fill="none" xmlns="http://www.w3.org/2000/svg">
<path fill-rule="evenodd" clip-rule="evenodd" d="M62.3372 12.3452C65.1498 12.6858 65.7811 11.4487 67.1576 10.0187C69.8356 7.23641 72.1693 3.8747 73.8319 0.891602C79.2788 5.23312 85.2432 10.295 90.8885 15.0302C92.332 16.2408 95.9865 18.3851 96.4503 19.8623C96.7699 20.8801 96.2008 22.2929 96.4503 23.0838C96.4503 24.8136 96.4503 26.5439 96.4503 28.2738C96.5704 29.1122 96.2078 30.417 96.6357 30.958C97.3597 36.1312 94.371 37.7201 93.1131 40.9805C93.346 41.0539 93.492 41.2114 93.4839 41.5173C91.5773 44.9517 89.7241 47.7691 87.1802 50.4659C86.0544 51.6594 84.3672 52.7537 83.843 54.0452C82.8088 56.5949 83.1472 59.4517 82.1745 62.6359C81.7474 63.1183 82.1085 64.3619 81.9891 65.1413C81.9891 66.4535 81.9891 67.7661 81.9891 69.0784C81.9891 70.2715 81.9891 71.4646 81.9891 72.6577C81.5621 73.1401 81.9231 74.384 81.8038 75.163C81.8038 76.4753 81.8038 77.7879 81.8038 79.1002C81.8038 80.5914 81.8038 82.0829 81.8038 83.5745C78.1303 82.6355 76.4517 83.6997 74.2023 85.0063C73.1023 85.645 71.7414 86.297 71.0504 86.9748C68.5262 89.4508 67.585 93.7627 66.6008 96.997C63.0519 98.4034 59.5527 99.8577 55.6625 100.934C54.5566 103.924 53.2728 106.741 51.3985 108.988C51.0004 109.32 50.0402 109.109 49.3592 109.167C48.1829 109.284 46.5192 108.931 45.6513 109.346C43.9208 109.346 42.1907 109.346 40.4602 109.346C38.4817 109.465 36.0117 109.108 34.342 109.525C33.1609 109.399 32.7497 110.017 32.3027 110.598C31.5453 111.18 30.8654 111.836 30.2634 112.567C29.5679 113.089 28.9499 113.685 28.4094 114.357C28.4094 114.416 28.4094 114.476 28.4094 114.536C27.652 115.117 26.9725 115.773 26.3701 116.504C25.6754 118.757 25.4997 121.51 25.0722 124.021C22.3538 122.397 19.9827 120.264 17.2854 118.294C14.6733 116.385 11.3988 114.82 9.31318 112.567C8.13912 111.299 7.7621 109.543 6.34709 108.451C2.6874 108.463 1.99787 105.61 0.414551 103.619C4.39936 105.44 9.85516 105.84 15.8025 105.766C17.9289 103.354 21.1323 100.634 23.2187 97.7127C25.2595 94.8552 26.7126 91.7003 26.1851 86.6166C26.1851 85.4833 26.1851 84.35 26.1851 83.2163C26.1851 80.6511 26.1851 78.086 26.1851 75.5206C26.0624 73.6704 26.4313 71.3458 25.9998 69.7938C25.9998 66.0953 25.9998 62.3965 25.9998 58.6977C26.8602 57.3976 29.0092 56.757 29.5223 55.2973C29.9427 54.1017 29.754 52.077 29.893 50.4652C30.8491 39.3827 31.7525 27.0263 32.8595 16.6402C37.1286 16.7948 41.8511 16.8366 45.6521 16.998C47.0215 17.0564 48.6178 17.4937 49.9164 16.998C52.6026 15.9724 52.2771 10.7048 56.9614 12.1659C57.2183 12.5742 58.2519 12.2328 58.8154 12.3448C59.9887 12.3452 61.1628 12.3452 62.3372 12.3452Z" fill="white"/>
</svg>
