<svg width="128" height="118" viewBox="0 0 128 118" fill="none" xmlns="http://www.w3.org/2000/svg">
<path fill-rule="evenodd" clip-rule="evenodd" d="M36.0002 0.933105C41.2591 3.76089 46.7064 7.18596 51.3881 10.5974C52.964 11.7458 54.8947 12.7714 56.2085 13.9978C57.7774 15.4625 59.059 17.6407 60.4725 19.3671C61.9249 21.1406 63.2236 23.1618 64.7368 24.736C67.1687 27.266 70.3376 29.0929 72.709 31.5371C75.6933 34.6128 77.492 38.8015 80.6812 41.917C83.0442 44.2256 87.0946 45.5414 90.322 47.286C91.5943 47.9734 92.8911 48.901 94.2153 49.6124C95.6499 50.3836 97.3775 50.8982 98.4792 51.7599C99.7756 52.7737 100.847 54.7061 102.187 56.2342C103.537 57.7719 105.227 59.1185 106.08 60.5292C107.378 62.6742 107.922 65.1878 109.232 67.151C111.307 70.2604 114.955 72.6155 117.76 75.0256C120.754 77.5979 123.951 79.895 126.845 82.5424C127.681 84.36 127.787 86.8829 127.958 89.3431C127.958 89.4627 127.958 89.5818 127.958 89.701C125.733 89.701 123.508 89.701 121.283 89.701C119.089 89.0758 117.224 88.1318 114.424 88.0906C112.999 89.7575 112.025 91.8599 110.716 93.6385C110.652 97.3949 110.161 100.739 110.16 104.556C108.116 107.474 106.33 110.643 104.598 113.862C101.386 114.474 98.5337 117.095 95.3278 117.262C94.0855 117.328 91.7459 116.642 90.322 116.368C86.3558 115.605 82.8229 114.59 81.0519 112.072C80.3183 111.029 79.8382 109.218 79.198 107.777C77.8141 104.662 76.5615 101.896 75.3048 99.0074C74.6175 97.4278 74.2319 95.6014 73.4508 94.5335C72.7124 93.5236 70.5329 91.8324 69.5576 91.6699C67.3103 91.2953 64.2364 92.6988 62.1414 92.3857C60.9173 94.2465 59.8934 96.3002 58.8043 98.2917C55.6273 98.0791 52.6775 97.9721 49.5346 97.7549C47.0345 97.5821 42.4498 96.7225 40.0791 97.2181C38.2163 97.6071 36.1777 100.869 34.888 102.229C33.1223 104.091 31.5171 105.703 29.6969 107.24C28.7049 105.363 27.7544 103.632 26.9158 101.513C26.2285 99.7757 25.6064 96.7984 24.3204 95.6071C23.384 94.74 20.8832 94.2229 19.3147 93.6385C13.9289 91.6327 8.657 89.6588 3.74133 87.7328C3.55634 82.8402 1.65087 79.6091 0.0334473 76.0996C1.53744 74.2029 4.42827 74.5193 5.781 72.5203C6.39861 71.6074 6.38675 69.7057 6.70779 68.2246C7.64125 63.9217 8.9432 59.2062 10.045 55.5178C12.0828 54.6038 14.1347 53.8047 16.5339 52.8335C18.287 52.1239 21.6479 51.3788 22.6518 49.791C23.8051 47.967 23.6027 44.8873 23.9493 42.2746C24.2989 39.6418 24.6337 37.018 24.8765 34.3999C26.2997 33.1227 27.7666 31.717 29.6969 30.1049C32.0991 28.098 35.5264 26.7285 34.5173 21.8724C34.9455 21.2719 34.5822 19.9067 34.7027 19.0088C35.3981 14.2654 31.394 10.0399 32.478 5.58634C32.9347 3.70616 35.2268 2.90776 36.0002 0.933105Z" fill="white"/>
</svg>
