<svg width="79" height="89" viewBox="0 0 79 89" fill="none" xmlns="http://www.w3.org/2000/svg">
<path fill-rule="evenodd" clip-rule="evenodd" d="M9.40606 25.279C11.531 22.862 14.3659 21.6607 17.5633 19.7307C20.876 17.7318 22.8178 15.1115 27.3894 15.0775C31.3449 14.9584 35.7943 15.3162 39.4406 14.8986C46.3081 13.3405 50.3418 9.02367 55.7558 5.95003C59.0047 4.10564 63.1686 2.76583 66.3233 0.938965C66.3233 1.53551 66.3233 2.13205 66.3233 2.7286C66.4442 3.62646 66.0809 4.99134 66.5094 5.59218C66.4138 9.56153 70.5965 9.40191 72.813 11.1404C73.3736 11.5533 74.7252 11.2034 75.5934 11.3193C75.996 13.854 76.1435 16.6346 77.2623 18.4782C76.5461 22.2078 73.2097 25.5445 73.7398 29.9322C73.9026 31.2824 75.6153 32.8856 75.9641 34.7643C76.3904 37.0585 75.702 39.7114 76.1502 41.744C76.4327 43.0258 77.7888 44.0464 78.0038 45.1447C77.0054 46.8653 76.1428 48.7168 75.0373 50.3347C69.8236 51.6988 64.9902 53.4026 58.9076 55.3461C56.4145 56.1427 53.745 56.9983 50.9357 57.8515C48.6262 58.5529 44.0015 59.3187 42.9631 60.5361C42.1457 61.4948 42.3288 64.1337 42.2217 66.2629C42.1216 68.2386 42.1791 70.4656 42.0363 71.9901C41.8532 73.9507 40.4579 75.5693 39.4406 77.1804C36.7552 81.4343 34.5513 84.7155 31.8395 88.9926C29.878 88.3656 28.4667 88.7965 26.8333 88.0976C25.111 87.3604 24.3644 85.3968 22.7548 84.8758C20.5312 84.1568 17.944 84.7426 14.9675 84.16C13.253 81.2553 12.9141 77.7805 11.0743 75.2115C9.56806 73.1091 6.68876 72.3737 5.32676 70.2004C7.23964 64.9872 11.4398 57.5938 7.92248 51.9458C6.50635 51.7024 4.99867 51.5467 3.28783 51.5875C2.06484 50.5605 1.25406 49.1359 0.135986 48.0079C1.6333 40.446 1.84684 31.6435 6.99569 27.6058C7.87614 26.9047 8.67983 26.1292 9.40606 25.279Z" fill="white"/>
</svg>
