<svg width="134" height="119" viewBox="0 0 134 119" fill="none" xmlns="http://www.w3.org/2000/svg">
<path fill-rule="evenodd" clip-rule="evenodd" d="M0.104004 8.82235C1.34367 7.56627 2.75981 6.61511 4.18261 5.42201C5.50976 4.30872 6.71978 2.58313 8.26121 2.0213C9.42711 1.59652 11.4015 1.55535 12.8966 1.30521C16.6486 0.677529 19.4275 0.529018 23.6496 0.768425C29.578 1.10445 33.3115 1.90391 37.369 3.632C47.1732 7.80784 55.019 15.3601 66.4767 16.5177C66.88 17.441 66.5608 19.0624 66.6628 20.2763C66.6628 21.4694 66.6628 22.6625 66.6628 23.8559C66.7814 24.5759 66.4218 25.7587 66.8481 26.1824C66.8481 27.1965 66.8481 28.2107 66.8481 29.2249C66.8481 30.418 66.8481 31.6111 66.8481 32.8042C66.966 33.4658 66.6079 34.5867 67.0335 34.9517C66.6172 38.4272 67.9655 39.6264 69.0724 41.7527C69.8109 43.1706 70.2687 44.8228 70.9267 45.6902C71.7115 46.7248 73.6289 47.851 75.0053 48.9117C76.4563 50.0292 77.7575 51.295 79.27 52.1331C80.7588 52.958 82.681 53.5957 84.4608 54.4595C86.1791 55.2933 87.8769 56.5183 89.4669 56.9652C93.9922 58.2381 99.752 58.1995 104.113 59.4706C105.063 60.6419 106.312 61.524 107.265 62.692C107.781 64.2226 108.098 65.9457 108.749 67.3456C112.305 69.8778 116.417 71.8743 119.872 74.5042C120.197 76.7734 120.634 78.8862 120.985 80.9471C121.35 83.0949 121.371 85.4958 122.097 87.3899C122.502 88.4452 123.721 89.8362 124.508 90.9696C128.031 96.049 131.582 100.917 133.778 106.898C131.724 107.601 128.494 106.676 126.361 107.614C124.526 108.42 124.134 111.53 122.653 113.341C121.891 114.273 119.882 115.819 118.575 116.205C116.446 116.832 113.922 116.286 111.9 116.741C110.319 117.097 109.272 118.437 107.822 118.71C106.208 119.014 104.468 118.366 102.26 118.531C100.423 116.991 99.6571 114.838 97.6241 113.162C96.0289 111.847 93.7424 111.249 92.248 109.941C91.2816 109.094 88.8608 105.813 88.354 104.392C88.354 103.438 88.354 102.483 88.354 101.529C88.238 100.985 88.5916 99.9872 88.1687 99.7388C88.3129 98.1682 87.8973 97.1379 87.9833 95.6227C86.3548 94.6021 85.1689 92.9388 83.1633 92.2224C77.623 90.2438 70.6609 92.4088 66.106 94.3699C64.424 96.9815 62.9456 99.79 60.9152 102.066C54.863 102.189 50.4311 103.877 45.8976 105.466C41.168 99.1742 40.2861 89.1681 38.1111 80.4103C36.272 78.4864 34.3562 76.637 32.3636 74.8621C29.852 73.7072 26.8095 73.0652 24.9471 71.2827C24.0978 70.3133 23.171 69.4183 22.1667 68.5981C22.1007 68.3633 21.8401 68.3168 21.7952 68.0613C21.0075 67.1513 20.143 66.3161 19.2002 65.5556C16.52 62.8427 16.6768 57.2501 16.2338 51.7752C16.008 48.9886 16.2497 45.7439 15.4916 43.5424C14.6764 41.1719 10.7012 39.5991 9.74479 37.0995C8.99891 35.1503 9.02229 32.4109 8.63192 30.1199C8.21487 27.6671 7.98688 24.7742 7.33442 22.7817C6.53813 20.3522 4.7561 18.1503 3.62654 15.9809C2.34572 13.5228 1.25767 11.1688 0.104004 8.82235Z" fill="white"/>
</svg>
