<svg width="79" height="115" viewBox="0 0 79 115" fill="none" xmlns="http://www.w3.org/2000/svg">
<path fill-rule="evenodd" clip-rule="evenodd" d="M28.9187 0.338867C29.2568 4.79347 31.2849 9.00831 31.3283 13.4035C31.3595 16.5534 29.8462 19.5748 30.2162 23.0678C29.7876 23.6683 30.1509 25.0332 30.0308 25.931C30.0308 27.4222 30.0308 28.9138 30.0308 30.4053C30.7014 35.5513 27.6935 37.6097 28.7333 42.5753C29.2178 43.1812 29.7824 43.7101 30.2162 44.365C31.7454 45.9907 33.3528 47.5417 35.0362 49.0182C36.69 50.7631 38.4197 52.4336 40.2277 54.0292C41.775 55.8167 45.7224 55.2875 48.3856 55.9978C59.3651 67.591 70.1918 79.3319 78.6055 93.4025C75.1931 99.1167 71.9842 105.027 68.7794 110.941C66.9591 111.869 65.4437 113.09 63.5879 113.984C62.4735 114.101 60.872 113.748 60.0653 114.163C58.9532 114.163 57.8411 114.163 56.7282 114.163C55.4307 114.163 54.1325 114.163 52.8349 114.163C52.0275 114.278 50.7397 113.93 50.2392 114.342C49.1271 114.342 48.0149 114.342 46.902 114.342C45.6045 114.342 44.3063 114.342 43.0088 114.342C42.082 114.342 41.1545 114.342 40.2277 114.342C39.0488 113.631 37.609 113.171 36.7052 112.194C35.1211 106.624 33.9003 100.704 32.2558 95.1921C27.5292 91.3731 22.4197 87.9112 17.6089 84.275C16.0074 83.0647 14.502 81.4096 12.7882 80.5168C10.248 79.193 7.19853 79.0331 4.4456 77.6532C2.96349 75.9219 1.66302 74.0156 0.181641 72.2843C0.650224 71.2454 1.55069 70.6231 1.84985 69.4207C2.27914 68.7014 1.91436 67.2159 2.03521 66.1992C1.9151 65.3014 2.2784 63.9362 1.84985 63.3357C1.84985 61.4863 1.84985 59.6369 1.84985 57.7875C1.84985 55.9978 1.84985 54.2082 1.84985 52.4185C1.72974 51.5797 2.0923 50.2753 1.6645 49.7339C1.6645 47.8845 1.6645 46.0351 1.6645 44.186C1.6645 42.3964 1.6645 40.6067 1.6645 38.8171C1.6645 37.9819 1.6645 37.1466 1.6645 36.3114C4.0126 32.2204 6.94793 28.0012 9.45099 23.9624C10.3088 22.5786 11.5767 20.9643 12.0467 19.6674C13.7072 15.0822 13.4558 10.22 15.1985 5.17101C19.7379 3.52701 24.3044 1.90986 28.9187 0.338867Z" fill="white"/>
</svg>
