<svg width="60" height="79" viewBox="0 0 60 79" fill="none" xmlns="http://www.w3.org/2000/svg">
<path fill-rule="evenodd" clip-rule="evenodd" d="M18.7844 4.35642C22.5119 4.01717 24.0148 1.53081 26.9419 0.418945C30.1705 1.8357 33.5351 7.10763 37.6953 4.53535C38.413 6.22837 39.5158 7.55032 40.2906 9.18859C41.911 9.89142 43.5967 10.5312 45.111 11.3364C45.0691 12.668 44.8126 13.7924 44.9257 15.2736C44.6187 15.5241 44.6187 16.9917 44.9257 17.2425C45.3946 24.3435 46.4875 32.3921 47.3361 39.2558C47.6482 41.7812 47.59 44.6852 48.2628 46.5933C48.9891 48.6531 51.5459 50.3217 52.1561 52.3204C53.9259 52.7598 55.4295 53.4559 57.1618 53.9311C57.6085 56.1846 58.4022 58.1027 59.0158 60.1954C58.7907 61.1115 57.8451 61.332 57.3472 61.9847C51.2771 63.2247 49.7375 68.8369 48.0771 74.3336C45.0784 74.5712 42.6198 77.466 39.5488 77.9133C35.8432 78.4529 32.2298 76.9975 27.8687 77.3761C25.2912 67.7608 21.8895 56.2164 18.9694 45.8776C18.2268 43.2487 17.551 36.9998 15.6322 35.6764C14.5049 34.8985 12.1397 35.0284 10.6264 34.9604C9.55323 22.7524 4.29316 14.5861 0.800293 4.71428C1.72708 4.71428 2.65424 4.71428 3.58102 4.71428C4.6965 5.01237 7.10095 5.01237 8.21606 4.71428C9.26666 4.71428 10.3173 4.71428 11.3679 4.71428C12.0533 4.60012 13.2148 4.94581 13.5929 4.53535C14.5816 4.53535 15.5703 4.53535 16.559 4.53535C17.2444 4.42119 18.4063 4.76724 18.7844 4.35642Z" fill="white"/>
</svg>
