<svg width="96" height="64" viewBox="0 0 96 64" fill="none" xmlns="http://www.w3.org/2000/svg">
<path fill-rule="evenodd" clip-rule="evenodd" d="M95.015 38.3028C95.1326 38.9055 94.7763 39.9651 95.2004 40.2715C95.2004 40.6293 95.2004 40.9875 95.2004 41.3454C92.6002 42.5335 91.0766 44.7618 87.5993 45.1036C86.9138 45.2177 85.7524 44.872 85.3746 45.2825C84.3859 45.2825 83.3972 45.2825 82.4082 45.2825C81.7231 45.3967 80.5613 45.051 80.1835 45.4614C79.1329 45.4614 78.0823 45.4614 77.0317 45.4614C75.6104 45.4614 74.1891 45.4614 72.7677 45.4614C71.6296 45.367 70.0838 45.6661 69.2452 45.2825C68.4945 42.2826 69.8017 38.8962 68.5038 36.5129C67.9911 35.5721 65.6593 34.5178 64.7959 34.0075C63.4383 33.2056 61.7405 31.8983 60.532 31.86C59.4877 31.8264 57.7416 32.8363 56.8241 33.2915C55.7727 33.8136 54.1731 34.4462 53.3015 35.0814C52.4055 35.7342 50.3473 38.3079 49.9644 39.3764C49.1269 41.7129 50.1371 45.3276 48.1104 46.1775C47.1062 46.9977 46.179 47.8924 45.3293 48.8618C44.0163 49.9805 42.7799 51.1735 41.6214 52.4414C41.2174 53.0655 40.7881 53.6657 40.1382 54.0521C39.1339 54.872 38.2068 55.767 37.3571 56.7368C36.044 57.8551 34.8077 59.0482 33.6492 60.3161C32.6843 61.3074 32.1575 62.6594 30.8681 63.0008C28.6101 63.5984 24.8663 63.3146 22.7106 63.0008C20.563 62.6883 18.8715 61.2712 16.963 61.2107C13.1187 61.0894 9.64882 63.1607 6.21008 63.3586C4.29608 63.4685 2.61155 62.9685 0.462891 62.8218C2.66011 58.4839 4.87402 53.4936 7.13723 48.8618C7.9224 47.2558 9.35892 45.5019 9.36189 44.03C9.36634 42.0743 7.38376 39.3986 6.21008 36.8707C5.44603 35.2253 3.02712 31.1475 3.05826 29.7122C3.07458 28.9642 4.11109 27.3603 4.72685 26.1329C7.99951 19.607 11.6203 13.3835 12.6991 5.72998C12.5919 4.58055 11.4375 4.44207 11.0305 3.58249C13.836 3.85697 16.4155 4.34973 19.0027 4.83534C19.8449 6.76598 20.2698 9.10029 21.5981 10.5625C21.7982 10.8584 23.2522 10.8584 23.452 10.5625C24.7495 10.5625 26.0474 10.5625 27.3452 10.5625C28.8296 10.4444 30.804 10.7994 31.9803 10.3836C34.0678 9.60058 35.9514 7.36396 38.0985 5.55106C38.9282 4.85073 40.0248 4.15471 41.0646 3.22464C42.6802 1.77961 43.3961 0.217557 46.0704 0.718915C46.3873 1.12866 47.4854 0.784774 48.1097 0.898215C49.6545 0.898215 51.1996 0.898215 52.7447 0.898215C53.5395 3.59037 54.6224 6.00518 55.3401 8.77249C57.1844 9.23771 58.8222 10.8663 61.0873 11.0993C63.9533 11.3942 67.1114 10.3843 70.5427 10.7414C71.1062 10.6291 72.1397 10.9708 72.3967 10.5625C73.802 9.76984 74.8252 7.2405 75.7338 5.37213C76.6506 3.48765 77.1488 1.49045 78.3296 0.182129C80.0712 0.92683 81.5292 2.04228 83.3353 3.04536C84.7262 3.81833 87.4543 4.57446 88.3411 5.90891C88.8601 6.69083 89.1088 8.41715 89.4536 9.66751C90.552 13.6512 91.3672 17.8546 91.8636 22.3746C93.1481 24.0576 95.2486 24.953 94.6443 28.4593C94.7618 29.0623 94.4056 30.1219 94.8297 30.4279C94.8297 31.442 94.8297 32.4562 94.8297 33.4704C94.9472 34.073 94.591 35.133 95.015 35.4393C95.015 36.3937 95.015 37.3481 95.015 38.3028Z" fill="white"/>
</svg>
