<svg width="105" height="87" viewBox="0 0 105 87" fill="none" xmlns="http://www.w3.org/2000/svg">
<path fill-rule="evenodd" clip-rule="evenodd" d="M86.2764 67.3312C84.6212 68.9337 82.7583 70.6708 80.7146 72.5213C78.8962 74.1678 77.0879 76.3249 74.967 77.7112C72.8988 79.0632 70.2619 80.1472 67.5513 81.6488C65.1075 83.0025 62.4828 85.3236 60.1355 85.7652C58.4287 86.0858 56.3835 85.8833 54.5733 85.9441C52.7353 86.0057 50.7838 86.0475 48.8261 86.123C45.7262 86.2426 40.1866 86.9493 37.3314 86.4809C35.0886 86.113 33.4715 83.8872 31.2135 83.0805C29.6527 80.8175 29.9049 75.8479 28.0617 74.132C26.3757 72.5621 23.3699 73.3948 20.8309 72.3419C23.88 70.3419 20.4965 66.1836 20.0894 63.2144C18.6318 62.4143 16.9076 61.8718 15.0837 61.4252C14.4064 59.5772 11.9823 57.8838 11.3758 55.8769C10.7923 53.947 10.7704 51.0942 10.449 48.5391C10.1473 46.1386 9.82733 43.6278 9.52223 41.2012C8.57284 33.6547 8.07645 26.9274 8.039 20.4409C6.53242 19.6282 4.85568 18.9801 3.21861 18.2934C2.44715 16.8305 1.43844 15.5969 0.808594 13.9976C4.93131 13.5056 7.81769 9.69729 11.0055 8.80802C15.1219 7.65894 19.4021 8.87563 22.5002 6.30228C23.331 4.35983 24.0279 2.2882 24.9106 0.396214C27.1352 0.396214 29.3599 0.396214 31.5849 0.396214C33.3162 0.277763 35.5386 0.633473 36.9614 0.217285C39.4333 0.217285 41.9056 0.217285 44.3775 0.217285C47.4055 0.217285 50.4339 0.217285 53.4623 0.217285C57.4882 1.69989 61.5661 3.13239 65.3277 4.87015C66.8402 10.4499 68.3653 16.0167 69.7774 21.6937C73.0667 24.2456 76.2319 26.917 79.6035 29.3891C80.5948 29.8046 82.3828 29.4506 83.6825 29.5684C84.3676 29.4542 85.529 29.7999 85.9072 29.3891C89.5761 29.8883 91.132 27.3944 93.3229 27.0627C92.7342 31.9406 93.9928 34.4571 95.548 37.443C98.3361 42.7966 101.253 49.0068 104.447 53.0134C103.062 53.3462 101.416 53.4285 100.183 53.908C95.469 58.3079 90.8343 62.7822 86.2764 67.3312Z" fill="white"/>
</svg>
