<svg width="59" height="73" viewBox="0 0 59 73" fill="none" xmlns="http://www.w3.org/2000/svg">
<path fill-rule="evenodd" clip-rule="evenodd" d="M0.0605469 68.8109C0.919121 63.6145 2.72856 59.3359 2.84163 53.4195C6.11207 49.1753 9.60941 45.6153 11.741 40.1759C13.9023 34.6585 14.0565 28.1387 15.8196 21.9209C16.6292 19.067 18.3445 16.309 19.5275 13.5091C20.7809 10.545 21.6613 7.51429 23.2354 5.09768C28.0758 4.24777 33.0578 5.35535 37.3262 4.20269C41.1709 3.16455 44.471 -0.660592 50.1188 0.444471C51.4704 0.153533 50.6271 1.98217 50.8602 2.77089C50.1774 5.84989 46.316 8.21606 46.0402 11.3616C45.8738 13.2568 47.5768 15.5983 48.0792 17.6255C48.838 20.6845 47.9872 24.2599 50.1188 26.2159C50.9218 26.2159 51.7255 26.2159 52.5292 26.2159C53.1513 26.6296 54.5652 26.2789 55.4957 26.3948C56.5463 26.3948 57.5969 26.3948 58.6475 26.3948C57.6599 28.7356 57.0467 30.9063 56.6078 33.5538C56.1959 36.0373 56.1225 39.068 55.3103 41.6073C54.5485 43.9871 52.5277 47.0575 51.0456 49.8402C49.5787 52.5943 47.3763 54.9007 45.6695 56.9988C43.9138 59.157 41.916 61.3414 39.922 63.7999C38.2096 65.9098 36.0832 69.6838 34.1744 70.6009C31.6098 71.8323 28.2081 71.876 24.9043 72.0324C24.0391 72.0324 23.1738 72.0324 22.3086 72.0324C21.0726 72.0324 19.8367 72.0324 18.6007 72.0324C18.0372 72.1447 17.0033 71.803 16.7464 72.2113C9.89558 72.3233 4.39716 71.1277 0.0605469 68.8109Z" fill="white"/>
</svg>
