<svg width="84" height="106" viewBox="0 0 84 106" fill="none" xmlns="http://www.w3.org/2000/svg">
<path fill-rule="evenodd" clip-rule="evenodd" d="M33.9173 98.1605C28.8596 101.272 22.9778 103.588 16.3043 105.14C13.9254 103.082 11.3904 101.174 9.25919 98.8766C8.65678 98.1455 7.97726 97.4895 7.2199 96.908C5.55316 95.2375 3.84157 92.331 3.88272 89.7494C3.90459 88.3731 4.80581 86.3659 5.36596 84.5591C6.48033 80.9629 7.64361 77.7963 8.70311 74.358C9.25474 72.5683 10.1156 70.5704 10.1864 68.9891C10.2916 66.6379 9.4286 64.1308 8.88847 62.0094C8.35316 59.9063 7.67921 57.8933 7.03454 55.5666C5.01971 54.5882 2.64305 53.9594 0.91626 52.703C0.91626 52.4643 0.91626 52.2259 0.91626 51.9873C1.34369 51.5049 0.981876 50.2613 1.10162 49.4819C1.10162 48.1696 1.10162 46.857 1.10162 45.5448C1.10162 44.3517 1.10162 43.1586 1.10162 41.9655C1.52868 41.4831 1.16723 40.2392 1.28697 39.4601C1.28697 38.1475 1.28697 36.8352 1.28697 35.5226C1.28697 34.3295 1.28697 33.1364 1.28697 31.9433C1.71404 31.4609 1.35259 30.217 1.47233 29.4376C1.47233 28.1253 1.47233 26.8127 1.47233 25.5005C1.80894 20.9711 1.73852 17.3875 3.14093 14.4044C4.33352 11.8683 7.53203 10.2039 9.25919 7.7826C10.4992 6.04413 10.927 4.33143 12.2256 2.5926C16.7391 2.17713 20.4985 1.03377 25.0183 0.624023C26.5945 2.32384 28.7195 3.49404 30.7654 4.7401C33.3386 10.7385 33.9224 17.0228 35.7716 23.353C37.6426 29.7608 41.9758 35.3562 42.0752 43.2183C41.0123 45.2946 40.116 47.5316 39.1087 49.6612C37.1558 50.3418 35.2096 51.0278 33.3612 51.8087C33.0657 54.2167 32.3032 57.0989 32.6198 59.5044C36.2698 62.6711 42.7955 61.9547 48.3788 63.4415C51.2237 64.1995 53.3401 65.7229 55.7946 66.3051C59.9325 74.2417 62.9887 83.2232 68.7726 89.5712C73.6571 89.9273 78.6791 90.1499 83.4195 90.6448C83.4195 91.0624 83.4195 91.48 83.4195 91.8976C82.9894 92.7354 83.3557 94.3414 83.2341 95.4769C83.2341 97.0279 83.2341 98.5788 83.2341 100.13C81.6274 100.13 80.02 100.13 78.4134 100.13C77.7283 100.244 76.5664 99.8982 76.1883 100.309C75.0146 100.309 73.8402 100.309 72.6658 100.309C71.9807 100.423 70.8196 100.078 70.4415 100.488C69.3286 100.488 68.2165 100.488 67.1043 100.488C66.3577 100.603 65.1329 100.255 64.694 100.667C59.9751 101.004 56.116 102.17 51.5306 102.635C48.4404 102.635 45.3501 102.635 42.2605 102.635C40.4222 101.248 39.1877 99.2781 37.0691 98.1612C36.4448 97.8631 34.5412 97.8631 33.9173 98.1605Z" fill="white"/>
</svg>
