<svg width="55" height="79" viewBox="0 0 55 79" fill="none" xmlns="http://www.w3.org/2000/svg">
<path fill-rule="evenodd" clip-rule="evenodd" d="M39.2371 0.709473C40.9654 3.51543 46.0301 3.10031 49.2486 4.46768C48.4008 8.78594 53.4395 10.1336 54.0694 13.2373C54.7267 16.4788 52.3411 18.573 52.0297 21.8277C50.4275 23.3235 48.4964 24.5016 47.2089 26.3016C47.2089 26.4211 47.2089 26.5403 47.2089 26.6595C46.9005 28.0336 46.9005 30.6546 47.2089 32.0284C47.4777 33.4394 48.4827 34.1398 48.8779 35.4288C48.8779 36.6219 48.8779 37.815 48.8779 39.0081C44.9468 41.6669 47.7231 46.2396 46.4675 50.6409C45.8262 52.8897 40.6302 55.9057 39.4224 57.9788C38.8438 58.9711 38.9172 60.258 38.4957 61.0213C37.2148 63.3388 32.7373 64.7591 32.3774 67.2852C32.1913 68.5878 33.3642 69.4953 33.8602 70.5067C33.8602 71.3419 33.8602 72.1771 33.8602 73.0124C33.5907 73.11 32.9023 72.803 32.9335 73.1913C26.8571 72.1531 24.0704 76.1468 19.5848 77.1284C15.2056 78.0868 11.1822 77.0325 6.05002 78.0231C4.31285 55.4795 0.051112 35.3726 0.303198 10.9095C4.6817 9.03716 8.84557 6.79805 13.2812 4.64554C15.5177 3.5598 17.1714 2.51879 20.5116 2.67697C21.1359 2.56353 22.2335 2.90778 22.5512 2.49804C23.5396 2.49804 24.5287 2.49804 25.5177 2.49804C26.142 2.3846 27.2397 2.7285 27.5566 2.31911C28.5457 2.31911 29.534 2.31911 30.5231 2.31911C31.1474 2.20567 32.245 2.54957 32.5627 2.14018C35.5733 2.42253 37.1982 1.36614 39.2371 0.709473Z" fill="white"/>
</svg>
