<svg width="77" height="38" viewBox="0 0 77 38" fill="none" xmlns="http://www.w3.org/2000/svg">
<path fill-rule="evenodd" clip-rule="evenodd" d="M75.863 13.6572C74.4372 16.3375 73.2157 19.2158 70.8568 20.9947C69.7903 21.8747 68.802 22.8291 67.8904 23.8583C67.7406 23.8926 67.7058 24.0379 67.5197 24.0372C66.6674 24.8248 65.6531 25.4575 65.1093 26.5429C63.6098 30.6429 61.536 34.1899 59.7332 37.9972C56.7979 36.8928 54.8887 34.7987 51.7606 33.8808C51.3825 33.4703 50.2214 33.816 49.5356 33.7015C48.4235 33.7015 47.3113 33.7015 46.1984 33.7015C45.8203 33.2914 44.6592 33.6371 43.9741 33.5225C37.3628 34.4759 36.5858 29.7973 33.0351 27.7958C32.1669 27.381 30.5031 27.7338 29.3272 27.6165C28.4583 27.7324 27.1074 27.3828 26.5461 27.7958C25.3102 27.7958 24.0742 27.7958 22.8382 27.7958C21.8462 27.9121 20.3696 27.5606 19.6864 27.9747C14.6718 28.3841 9.56369 28.7026 4.66878 29.2275C3.54922 24.4623 1.96666 20.1433 0.219482 15.9836C3.62412 13.3645 7.44839 11.15 9.48917 7.21432C14.2499 6.03948 18.6232 4.95482 22.6529 2.91897C25.1103 1.6772 26.0342 -0.033725 29.8833 0.413596C31.3509 1.97958 32.8961 3.47112 34.5187 4.88788C43.4841 6.02121 50.1995 3.44394 58.0642 2.91932C58.7493 2.80516 59.9111 3.15121 60.2893 2.74039C61.4014 2.74039 62.5136 2.74039 63.6264 2.74039C64.3723 2.62552 65.5979 2.973 66.0361 2.56146C67.149 2.56146 68.2611 2.56146 69.374 2.56146C70.1199 2.44695 71.3447 2.79407 71.7836 2.38253C72.8965 2.38253 74.0087 2.38253 75.1208 2.38253C75.43 2.38253 75.7392 2.38253 76.0483 2.38253C76.0483 3.3967 76.0483 4.41087 76.0483 5.42504C76.0483 6.49897 76.0483 7.5729 76.0483 8.64647C75.6228 9.01149 75.9809 10.133 75.863 10.7943C75.863 11.748 75.863 12.7024 75.863 13.6572Z" fill="white"/>
</svg>
