<svg width="128" height="99" viewBox="0 0 128 99" fill="none" xmlns="http://www.w3.org/2000/svg">
<path fill-rule="evenodd" clip-rule="evenodd" d="M33.3741 0.903809C35.8312 3.06562 35.8119 7.61865 40.7899 7.34668C43.0023 12.1441 47.3118 14.2308 51.5432 17.3692C54.2705 19.3921 57.2403 21.2229 59.7007 23.2753C64.3984 27.1941 67.9506 32.5477 72.1226 36.161C74.1949 37.9563 76.7669 39.3631 78.797 41.351C79.6467 42.3204 80.5734 43.2154 81.5781 44.0352C81.7638 44.0349 81.7987 44.1802 81.9488 44.2145C82.86 45.2434 83.8491 46.1981 84.9153 47.0778C85.7649 48.0475 86.6917 48.9422 87.696 49.7624C87.8817 49.762 87.9165 49.9073 88.0667 49.9413C88.9164 50.9111 89.8431 51.8058 90.8474 52.626C91.6637 53.4491 92.3184 54.4274 93.4428 54.9524C98.3181 55.5532 105.731 56.1802 111.241 56.7424C113.345 56.9571 115.671 57.5952 117.174 57.2792C119.561 56.7775 120.624 53.8327 123.107 53.521C123.692 55.6409 124.958 57.6049 125.702 59.7849C126.301 61.5381 127.595 65.3052 127.556 66.9435C127.517 68.5921 125.709 73.8358 125.146 75.1763C123.28 79.6188 120.2 82.9408 117.359 86.2724C113.536 90.7557 108.902 95.0138 104.751 98.4421C103.673 97.5621 102.886 96.4291 101.785 95.5788C100.671 94.7182 99.5611 93.9123 98.4482 93.0731C96.2828 91.4406 94.1279 89.5772 91.7738 88.241C84.3822 84.0444 76.4192 81.2667 68.4136 78.3978C64.6653 77.0544 60.7973 75.059 56.9189 73.2074C53.1625 71.4142 48.9004 69.9069 45.6095 67.8385C43.1243 66.2761 40.6757 63.6508 38.1938 61.5742C31.8786 56.2922 25.7448 51.3441 19.654 46.0038C18.4351 44.9356 16.7138 43.7744 15.9461 42.7827C14.5007 40.9169 14.1236 38.2924 12.9796 36.3399C11.9383 34.5631 10.0729 32.7084 8.53032 30.971C5.99426 28.1156 3.98091 25.178 0.558105 23.6331C0.558105 23.5733 0.558105 23.5139 0.558105 23.4542C3.62873 22.4762 6.66896 18.0287 9.82782 17.3692C13.2165 16.6617 16.7461 17.658 20.7665 17.0113C22.0543 15.8397 23.5387 14.4684 25.0304 12.8949C26.1659 11.6975 28.5088 9.74252 28.9237 8.4206C29.1861 7.58393 28.8651 6.66067 29.109 5.91525C29.8382 3.68831 32.1215 2.84089 33.3741 0.903809Z" fill="white"/>
</svg>
