<svg width="81" height="134" viewBox="0 0 81 134" fill="none" xmlns="http://www.w3.org/2000/svg">
<path fill-rule="evenodd" clip-rule="evenodd" d="M57.7031 63.3966C57.5141 65.0202 56.3456 65.4052 56.0342 66.9759C55.7469 68.4252 56.1313 73.5994 56.5902 75.2084C56.9183 76.3564 59.1085 80.4485 59.9274 80.9355C62.1395 82.2496 65.8785 81.4376 68.6414 82.0091C71.6476 82.631 74.1762 84.0013 76.7994 84.6934C77.8151 88.711 76.8869 92.1246 77.9115 95.6105C78.7045 98.3105 81.5426 100.113 80.5072 104.201C79.3284 105.808 78.5406 107.792 77.1701 109.212C75.4663 109.807 73.9271 109.396 72.5347 110.107C71.3791 110.698 69.5764 113.473 69.3829 115.118C69.1056 117.489 70.2262 119.625 71.6079 121.024C71.3436 121.485 71.0092 121.878 71.0518 122.635C68.8709 123.155 67.2731 124.238 64.1921 123.888C63.5678 124.001 62.4698 123.657 62.1524 124.067C61.1634 124.067 60.1751 124.067 59.186 124.067C58.5617 124.18 57.464 123.836 57.1463 124.246C56.158 124.246 55.1689 124.246 54.1799 124.246C53.5556 124.359 52.4579 124.015 52.1409 124.425C47.6141 124.495 44.0545 127.066 40.6458 128.72C37.4862 130.254 34.5138 131.412 31.7465 133.016C27.4565 131.967 22.9594 131.118 18.7685 129.973C12.4215 121.902 5.84504 113.098 0.785156 104.38C3.24855 104.193 6.00999 104.294 8.20091 103.843C9.37089 100.469 8.8011 96.5524 9.49841 93.2841C10.0219 90.8313 11.7023 88.2948 12.2795 85.5884C13.1099 81.6985 12.9602 76.8148 13.3924 72.3444C13.59 70.2928 13.9266 68.082 14.1338 65.9016C14.3329 63.7988 14.7759 61.3414 14.5045 59.6376C14.1179 57.2139 12.5461 54.6223 11.5381 52.1209C10.5787 49.7407 8.85708 46.9162 8.57163 44.6041C8.40814 43.2757 8.93493 41.5898 9.1277 39.9509C9.30638 38.43 9.19517 36.7201 9.49841 35.2976C10.2921 31.5788 12.8371 27.6581 13.7631 23.4855C14.5676 19.8622 13.9151 15.716 14.8753 12.5683C17.0098 9.28786 20.711 9.50722 24.7014 7.37833C26.0141 6.678 28.03 5.17966 29.1515 4.1569C30.3085 3.10087 31.2441 1.14947 32.3033 0.756543C33.5014 0.311369 36.1213 0.137808 37.494 0.398686C38.6336 0.61519 39.9122 2.12678 41.2019 3.08333C44.1365 5.25946 46.0609 6.58067 48.8038 8.63119C50.0716 9.57951 51.3532 11.0152 52.5117 11.4948C55.6375 12.7888 58.2889 12.0967 61.9671 13.4633C63.5623 18.9872 61.2227 20.4612 59.0006 23.6644C57.8051 25.3882 55.8807 27.4799 55.8488 29.2123C55.8199 30.7901 57.8618 34.0415 58.6299 35.1183C59.8703 36.8568 63.2108 39.1632 63.8214 41.2034C64.6655 44.0283 63.649 46.6013 64.3775 50.5098C63.1567 52.2082 58.5691 52.945 57.7031 54.8051C57.0325 56.2444 57.8095 58.1733 57.5178 60.5319C57.6379 61.4312 57.2746 62.7961 57.7031 63.3966Z" fill="white"/>
</svg>
