<svg width="148" height="150" viewBox="0 0 148 150" fill="none" xmlns="http://www.w3.org/2000/svg">
<path fill-rule="evenodd" clip-rule="evenodd" d="M45.9912 0.895996C47.7839 5.3141 51.6787 9.35933 53.2223 14.3189C53.8841 16.446 54.1065 19.1328 54.5198 21.4778C54.9499 23.9202 54.7478 26.8181 55.632 28.8153C56.723 31.2795 60.6047 32.7836 61.3795 35.0792C62.1588 37.3892 61.7083 40.791 61.9356 43.6699C62.4083 49.6526 62.69 55.3368 66.0149 58.3457C66.8027 59.2557 67.6672 60.0909 68.6099 60.851C69.46 61.8208 70.3868 62.7155 71.391 63.5357C73.301 65.0927 76.2674 65.6295 78.4361 66.936C80.2129 68.8005 82.0672 70.5901 83.9983 72.305C86.2964 81.2432 87.1812 91.5448 92.3416 97.7192C97.0044 96.3708 102.567 94.3482 108.842 93.9607C109.767 92.8016 110.64 91.6761 111.623 90.2021C112.411 89.0215 112.911 87.1503 114.219 86.2649C117.153 84.2792 125.513 82.5547 129.978 84.296C131.365 84.8375 132.082 86.3354 133.315 86.8017C133.75 87.0977 133.716 87.846 133.686 88.5918C133.802 89.1357 133.448 90.133 133.871 90.381C133.871 91.1569 133.871 91.9323 133.871 92.7078C133.991 93.606 133.628 94.9706 134.057 95.5714C134.057 95.8097 134.057 96.0488 134.057 96.2871C135.379 98.2321 137.053 99.837 138.321 101.835C142.366 103.776 145.589 106.511 147.961 110.068C145.931 111.275 141.409 111.074 140.175 112.931C139.235 114.346 140.267 116.066 139.99 117.942C139.697 119.92 137.855 121.719 137.95 123.491C135.62 124.105 132.076 123.548 130.719 125.101C129.648 128.043 129.545 130.882 126.826 132.26C125.124 133.123 121.55 133.533 119.224 134.05C117.024 134.539 112.874 134.847 111.809 136.019C110.538 137.415 110.721 140.794 110.326 142.819C109.83 145.349 109.277 147.412 108.657 149.441C106.185 149.441 103.713 149.441 101.241 149.441C98.1803 149.233 95.7433 148.425 92.7123 148.189C89.0074 145.93 84.6797 142.984 80.6611 140.493C79.2161 139.597 76.065 138.758 76.5825 136.734C76.891 136.073 76.891 134.174 76.5825 133.513C75.6268 127.575 73.7617 122.516 72.3186 117.048C72.3186 116.392 72.3186 115.735 72.3186 115.079C72.3186 114.483 72.3186 113.886 72.3186 113.29C72.3186 111.201 72.3186 109.113 72.3186 107.026C72.7471 106.365 72.3831 104.94 72.5039 103.983C72.3816 102.669 72.7486 100.883 72.3186 99.8664C72.5755 96.6707 69.2754 97.1331 66.7564 96.645C64.5176 96.2116 62.9058 95.3077 61.0088 95.5714C59.282 95.8115 56.7667 98.0184 54.8905 99.1507C52.8813 100.363 50.2978 101.436 48.7723 102.73C46.1302 104.973 44.5454 108.495 42.4687 110.068C40.7193 110.363 37.7291 110.363 35.9797 110.068C33.8851 108.238 35.5552 104.862 35.0529 102.193C34.7808 100.746 32.3774 98.2686 31.345 97.8982C30.5268 97.6044 28.0953 97.298 26.5242 97.8982C24.9746 98.4894 24.9913 100.282 23.5578 101.299C19.005 95.79 16.363 88.4379 12.8048 81.9696C12.6818 79.5831 13.051 76.7206 12.6195 74.6317C10.8768 69.1862 11.0996 64.0993 12.0634 57.6296C12.5776 54.1745 13.0017 50.6553 13.7316 47.9653C14.1275 46.507 15.2753 45.0652 15.2152 43.6699C15.14 41.9365 13.6519 40.2442 12.9902 38.8378C12.1676 37.0907 11.6152 35.6035 10.7652 34.0057C8.14051 33.6163 5.23151 33.5011 2.23688 33.4689C1.65783 31.5218 1.15292 29.5038 0.753662 27.3839C8.12717 27.2021 14.0764 27.8376 19.2938 25.7728C21.7253 24.8109 24.2447 21.9015 26.3389 20.0457C33.3558 13.8282 40.1346 7.35424 45.9912 0.895996Z" fill="white"/>
</svg>
