<svg width="72" height="75" viewBox="0 0 72 75" fill="none" xmlns="http://www.w3.org/2000/svg">
<path fill-rule="evenodd" clip-rule="evenodd" d="M64.7031 56.1294C66.702 58.2565 69.2792 59.8253 71.1921 62.0351C67.8423 67.8098 60.7906 70.0107 55.8041 74.2051C50.7724 73.6701 44.6211 72.9895 38.9325 72.4155C35.6076 72.0798 32.7001 72.3589 31.3314 70.2676C30.4202 69.2388 29.4315 68.284 28.3649 67.4044C27.5153 66.4346 26.5885 65.54 25.5842 64.7198C25.434 64.6858 25.3992 64.5405 25.2135 64.5408C24.3019 63.5116 23.3132 62.5569 22.247 61.6772C21.3974 60.7078 20.4706 59.8128 19.4659 58.9926C14.5799 55.871 10.0183 51.1548 5.9319 46.8226C4.42346 45.2237 0.550234 42.5852 0.18471 40.7379C-0.00064753 39.8014 0.811958 34.7707 1.29685 33.5794C1.6368 32.7438 2.39009 32.2671 2.96544 31.7897C3.6609 31.268 4.27888 30.6714 4.81938 30.0001C4.81938 29.9403 4.81938 29.8809 4.81938 29.8212C5.57675 29.24 6.25628 28.5837 6.85869 27.8526C7.33246 27.2958 7.6409 26.5793 8.89799 26.7787C10.9377 26.7787 12.977 26.7787 15.0163 26.7787C16.1925 26.6613 17.8563 27.0148 18.7241 26.5997C21.129 26.6541 23.3918 26.5715 25.5838 26.4208C27.929 24.2107 29.4348 21.1896 30.5896 17.8304C34.6263 16.8946 37.9041 15.2274 41.5283 13.8933C42.4562 10.076 43.9238 6.78018 45.7922 3.8708C48.8602 2.50379 50.7917 -0.391284 55.8037 0.649364C55.8037 0.828293 55.8037 1.00722 55.8037 1.18615C55.3733 2.1427 55.7403 3.86901 55.6184 5.1233C55.6184 6.49532 55.6184 7.8677 55.6184 9.23973C57.2443 10.8318 59.9561 11.3758 62.1073 12.4612C63.1991 16.4781 64.2508 20.5333 65.0738 24.8101C63.4786 29.5403 61.9094 35.1851 60.2534 40.5594C59.6869 42.397 58.613 44.2442 58.5848 45.7497C58.5422 48.0236 60.1952 49.9413 60.6241 52.1926C61.2265 52.9237 61.9061 53.5797 62.6634 54.1612C63.2658 54.8916 63.9457 55.5479 64.7031 56.1294Z" fill="white"/>
</svg>
