<svg width="117" height="96" viewBox="0 0 117 96" fill="none" xmlns="http://www.w3.org/2000/svg">
<path fill-rule="evenodd" clip-rule="evenodd" d="M11.4398 0.358398C13.2099 1.58513 13.8813 4.48377 15.7044 5.72733C18.0896 7.3545 21.5606 7.19812 24.2324 8.5909C25.8672 9.44296 27.4535 10.9843 29.0531 12.1702C33.9195 15.7795 38.8089 19.5428 43.3286 23.0873C44.708 28.7959 46.2268 34.3688 47.5933 40.0895C49.8884 41.2736 51.3857 43.229 55.3798 42.7738C56.678 42.7738 57.9755 42.7738 59.273 42.7738C60.0196 42.6589 61.2445 43.0064 61.6834 42.5948C62.8578 42.5948 64.0322 42.5948 65.2059 42.5948C66.5042 42.5948 67.8017 42.5948 69.0992 42.5948C69.8458 42.48 71.0706 42.8275 71.5095 42.4159C76.8589 43.1051 78.5053 40.2205 81.7064 38.8366C84.8004 32.9338 88.0701 27.202 91.3472 21.4766C93.2675 23.8102 95.0325 26.507 97.0948 29.3513C98.4479 31.2168 101.179 36.0103 103.213 37.047C106.798 38.8746 111.9 38.2991 116.006 40.2684C116.006 41.1037 116.006 41.9385 116.006 42.7738C115.573 45.5779 115.943 49.1569 115.82 52.2591C106.899 55.1009 95.4569 55.5106 89.1229 60.8499C87.6857 62.0877 86.3259 63.3999 85.0436 64.787C82.9179 67.8649 81.3153 71.4489 79.2968 74.6302C73.9989 76.3583 70.8419 78.4804 66.8749 81.4309C65.6078 82.3735 63.8324 83.0567 63.167 84.1156C62.0282 85.9267 62.2024 89.0848 61.1273 91.2745C60.7088 92.1266 58.1876 95.1931 57.4194 95.3906C55.5392 95.8741 52.8066 95.0091 50.5597 94.8538C48.2587 94.6949 45.9822 94.555 43.514 94.4959C37.6129 88.2016 34.9656 78.766 30.3506 71.2299C27.7337 70.7056 25.6166 68.9188 22.5641 68.1874C17.2222 66.9073 11.0872 67.5085 7.73186 64.787C7.83752 62.5625 8.18784 60.5739 8.47329 58.5231C10.444 57.9791 12.1834 57.2119 14.0355 56.5545C14.761 53.8248 16.8818 51.96 17.1873 49.2166C17.7671 44.0141 15.3104 39.9041 13.8501 36.152C12.979 33.9129 11.8097 31.5524 11.069 29.172C8.99971 22.5194 8.2605 15.5874 5.87829 10.0223C4.08255 8.77234 1.882 7.91384 0.501465 6.26376C2.93001 5.6189 5.38524 6.60301 7.17579 5.9059C9.46013 5.01699 9.59916 1.62879 11.4398 0.358398Z" fill="white"/>
</svg>
