<svg width="74" height="65" viewBox="0 0 74 65" fill="none" xmlns="http://www.w3.org/2000/svg">
<path fill-rule="evenodd" clip-rule="evenodd" d="M23.7309 4.01523C24.5346 4.01523 25.3376 4.01523 26.1413 4.01523C28.1127 2.87582 27.7068 -0.55888 31.5181 0.0781057C31.775 0.486421 32.8082 0.145025 33.3717 0.257034C36.8661 0.224827 40.0612 0.481411 43.3832 0.614891C44.3304 3.22045 45.1411 5.95769 45.979 8.66882C55.0882 11.7475 64.5862 14.4496 73.0478 18.1542C71.3577 27.9269 69.9293 35.877 65.4459 42.6731C63.9234 44.9817 61.0496 46.7563 60.2552 49.116C59.6283 50.9779 59.9931 53.0628 59.6991 54.8431C59.1605 58.0964 57.9449 60.8974 57.2887 64.1496C49.4537 60.3019 41.6008 54.5712 31.5181 52.3374C29.4381 51.8769 26.4998 51.947 23.9163 51.8006C16.3578 51.3723 10.9717 52.1327 4.44932 53.5903C2.99389 48.0152 1.53846 42.4405 0 36.946C2.35329 33.2522 3.90771 28.7872 6.11828 24.9549C7.12255 24.1351 8.04931 23.24 8.89936 22.2703C9.96517 21.3906 10.9542 20.4362 11.8651 19.4067C14.0842 17.5515 15.087 14.523 16.6859 12.0692C17.1144 11.4683 16.7511 10.1035 16.8712 9.2056C16.8712 8.19144 16.8712 7.17726 16.8712 6.1631C17.2975 5.73939 16.9379 4.55668 17.0566 3.83668C17.0566 2.94203 17.0566 2.04702 17.0566 1.15238C18.8449 1.87167 19.2831 3.89501 21.8773 3.83668C22.1343 4.24428 23.1674 3.90287 23.7309 4.01523Z" fill="white"/>
</svg>
