<svg width="107" height="125" viewBox="0 0 107 125" fill="none" xmlns="http://www.w3.org/2000/svg">
<path fill-rule="evenodd" clip-rule="evenodd" d="M56.3943 0.260742C57.6144 1.17149 58.4151 2.48624 59.3608 3.66108C60.8118 3.81174 62.3332 3.89441 63.9962 3.84001C66.3662 7.57103 64.2628 13.2957 62.698 17.2625C62.1389 18.6807 60.8763 20.5523 61.0298 21.5582C61.3449 23.6249 66.0982 25.1168 66.9627 26.9272C68.5753 29.8448 69.5143 33.4126 71.412 36.0547C73.634 36.7732 76.7214 36.657 79.3846 36.9497C81.5329 39.0517 83.9948 40.851 88.0978 41.0658C87.0572 43.3224 85.673 45.0104 84.2046 47.3297C83.356 48.6695 80.4222 52.3039 80.6821 54.1304C80.8993 55.6556 83.3538 55.9361 83.8339 57.71C84.3833 59.7384 83.4442 60.6706 83.8339 63.2579C87.5636 68.4869 96.3992 68.7871 102.93 71.3118C103.737 71.7262 105.338 71.3737 106.453 71.4908C106.883 72.745 106.516 74.7709 106.638 76.3229C102.23 77.594 100.044 79.4202 98.8515 83.6608C97.9948 86.7036 98.4474 90.6053 97.3679 93.504C96.5253 95.7685 94.6376 96.9426 93.66 98.6944C91.504 99.6588 89.0072 99.1911 87.5418 100.484C86.7655 101.169 85.5158 104.867 84.946 106.748C84.5312 108.12 85.3883 109.907 85.1314 111.043C84.8296 112.381 83.2567 113.099 82.5364 113.907C81.6059 114.023 80.192 113.672 79.5699 114.086C76.8222 114.372 74.5645 113.588 72.8956 114.444C71.5336 115.142 70.8537 117.903 70.1145 119.455C69.1362 121.506 68.381 123.266 67.5188 124.645C65.3234 119.439 62.4763 114.565 59.3608 110.148C58.2972 108.64 56.7413 107.189 56.209 105.674C54.8006 101.66 55.3849 97.0597 53.7993 92.6093C50.2913 90.0299 46.1771 88.0352 42.6749 85.4504C42.1311 83.8873 41.7359 82.181 41.1921 80.6182C40.1567 79.4699 39.0445 78.396 37.8549 77.3968C33.0038 75.9565 26.9559 76.1694 22.4666 74.7122C20.9459 74.2187 19.2758 72.9977 17.6458 72.2065C13.9272 70.4018 11.6413 69.2373 8.74643 67.0165C7.48007 66.0445 5.7748 64.9216 5.03856 63.974C3.50566 62.0004 2.97146 59.4138 1.51603 56.994C1.39666 56.2145 1.75774 54.9714 1.33068 54.4886C1.33068 53.4744 1.33068 52.4603 1.33068 51.4461C1.33068 50.2526 1.33068 49.0596 1.33068 47.8665C1.21279 47.2051 1.5709 46.084 1.14532 45.719C1.14532 44.645 1.14532 43.5715 1.14532 42.4975C1.14532 41.3044 1.14532 40.1113 1.14532 38.9179C1.02743 38.2566 1.38554 37.1354 0.959961 36.7708C0.959961 36.4723 0.959961 36.1738 0.959961 35.8754C2.37387 36.1216 3.65209 36.4981 5.40928 36.4125C6.27453 36.4125 7.13976 36.4125 8.005 36.4125C9.24096 36.4125 10.4769 36.4125 11.7129 36.4125C12.2767 36.3005 13.3103 36.6416 13.5672 36.2336C15.2354 36.2336 16.9044 36.2336 18.5733 36.2336C19.1976 36.1202 20.2953 36.4644 20.6123 36.0547C23.7989 35.2939 27.4308 35.126 30.6238 33.9072C33.4579 32.8254 34.7865 30.7441 36.5567 28.5379C39.6499 24.6834 42.6453 20.976 45.6414 17.2625C47.6811 14.735 50.1152 12.347 51.5743 9.7461C53.3894 6.50999 54.7384 3.05775 56.3943 0.260742Z" fill="white"/>
</svg>
