<svg width="80" height="66" viewBox="0 0 80 66" fill="none" xmlns="http://www.w3.org/2000/svg">
<path fill-rule="evenodd" clip-rule="evenodd" d="M1.91666 9.82911C2.95651 8.02944 3.72315 5.96532 5.06847 4.46018C7.52482 4.70638 9.48849 3.52045 11.3721 3.92304C12.2359 4.10841 14.0527 5.73378 14.5239 6.42874C15.2601 7.51591 15.6731 9.29626 16.3778 10.9034C18.1929 15.0406 20.7549 20.4185 22.1254 24.147C24.5747 26.526 27.6939 27.5566 32.1369 28.442C34.0787 28.8292 36.0835 29.4755 37.6987 29.3373C41.4507 29.0163 44.6433 26.3814 47.7102 25.5788C48.5173 22.1995 52.4128 18.9638 53.2721 15.9141C54.2652 12.3914 53.0652 8.13966 54.0139 4.99731C54.6144 3.0062 56.1003 1.97916 57.1657 0.34375C59.5345 0.502996 61.1798 1.36079 63.0982 1.95483C65.1446 2.48446 68.4658 1.78413 70.514 2.31269C72.9563 6.65457 74.233 11.6306 76.6323 15.9141C77.2688 17.051 78.6337 17.9961 79.0423 19.3148C79.681 21.3764 78.9893 23.4502 79.5983 25.5788C76.3379 28.5762 72.5874 31.1005 69.4011 34.1691C69.4011 35.9591 69.4011 37.7488 69.4011 39.5384C68.97 41.031 69.3384 43.2959 69.2157 45.0866C69.2157 48.0694 69.2157 51.0521 69.2157 54.0352C68.3802 58.4784 65.932 61.3641 64.3954 65.1309C64.1147 65.5761 62.7983 65.0211 62.5414 65.4891C57.2584 65.6813 51.4582 66.5151 48.4509 63.8784C47.4696 61.3061 46.6515 58.5761 45.6702 56.0034C44.0617 55.7071 42.2596 55.5973 40.2937 55.6456C39.9764 55.2358 38.8787 55.5797 38.2544 55.4666C37.3273 55.4666 36.4005 55.4666 35.4733 55.4666C31.4244 58.5975 28.1236 62.4513 23.6079 65.1309C22.0631 65.1309 20.518 65.1309 18.9732 65.1309C18.1043 65.2469 16.753 64.8972 16.1921 65.3099C15.4507 65.3099 14.7089 65.3099 13.9675 65.3099C13.3198 63.3696 12.6233 61.4772 11.7428 59.762C8.22584 59.1003 4.61472 58.5299 0.989502 57.9723C1.71647 55.2694 5.18339 51.2024 5.62454 48.3081C6.27329 44.0556 5.62454 38.3478 5.62454 32.9166C5.62454 27.4725 6.41935 21.5357 5.62454 17.3462C5.03733 14.2483 2.39895 11.9551 1.91666 9.82911Z" fill="white"/>
</svg>
