<svg width="80" height="108" viewBox="0 0 80 108" fill="none" xmlns="http://www.w3.org/2000/svg">
<path fill-rule="evenodd" clip-rule="evenodd" d="M0.885234 39.3476C2.33621 38.2039 3.94659 36.7768 5.89099 35.2316C7.20665 34.1859 10.2828 32.5 10.7114 30.9362C11.2849 28.8431 9.98552 26.7532 10.3407 23.9562C7.69858 20.7985 6.45188 17.2024 4.59349 13.0394C2.74288 8.89399 0.530089 5.76202 0.699877 0.15332C5.36569 3.27741 8.81444 7.93958 13.6778 11.0705C16.0182 12.5774 18.9891 13.5375 21.6501 14.8287C29.4562 18.6177 37.4718 22.8773 46.3085 25.3883C47.8473 32.553 48.122 39.883 50.9435 45.4326C52.9495 49.3787 56.9187 51.0703 60.3989 53.4866C60.3989 53.546 60.3989 53.6057 60.3989 53.6655C56.7166 59.2384 53.1622 64.9344 50.3874 71.3837C50.4245 78.9359 48.859 84.9419 46.3089 89.9966C42.8645 90.9102 37.9459 90.9123 34.9995 92.323C33.9051 92.8469 30.036 96.1929 29.623 97.1552C28.492 99.7879 29.4173 103.321 28.1398 106.462C27.2074 106.516 26.6751 106.957 25.9151 107.178C23.3431 105.664 20.912 104.013 18.4994 102.346C18.4994 101.928 18.4994 101.51 18.4994 101.093C18.3818 100.49 18.7381 99.4301 18.314 99.1241C18.314 98.1693 18.314 97.2149 18.314 96.2605C18.1969 95.6579 18.5531 94.5979 18.1286 94.2916C18.1286 93.2774 18.1286 92.2633 18.1286 91.2491C18.0115 90.6465 18.3678 89.5869 17.9433 89.2805C18.8875 85.3624 15.8006 84.8266 14.9768 82.4794C14.1001 79.9802 14.2283 76.9083 13.4936 74.068C12.7692 71.2685 12.0882 68.5899 11.4543 66.0144C7.9503 63.9084 4.23093 62.0104 0.700985 59.9294C0.700985 56.8869 0.700985 53.8444 0.700985 50.8019C0.700985 48.177 0.700985 45.5522 0.700985 42.9273C1.12953 42.0895 0.763639 40.4835 0.885234 39.3476ZM79.4944 49.1912C71.7628 40.7268 63.8029 32.4821 52.0553 27.8937C52.8219 33.4179 53.7398 38.7955 55.5778 43.2851C57.6898 45.1145 60.3971 48.5449 63.3643 49.3701C67.1345 50.4183 71.242 49.626 75.9715 49.7284C76.6155 49.1207 79.7462 50.0791 79.4944 49.1912Z" fill="white"/>
</svg>
