<svg width="83" height="61" viewBox="0 0 83 61" fill="none" xmlns="http://www.w3.org/2000/svg">
<path fill-rule="evenodd" clip-rule="evenodd" d="M52.221 0.585823C55.4321 2.66426 56.5694 6.72308 62.7885 5.77619C63.1667 6.1863 64.3285 5.84061 65.0136 5.95512C66.1265 5.95512 67.2386 5.95512 68.3507 5.95512C68.7289 6.36523 69.8907 6.01989 70.5758 6.13405C73.593 7.27812 76.0316 8.98079 78.5476 10.608C79.6475 16.2303 81.7595 21.8236 82.6269 27.0733C76.0931 30.9557 70.3122 37.1542 64.6429 43.1808C60.347 47.7471 56.0297 51.3607 51.4795 55.5298C48.7281 58.0509 47.4532 59.7969 43.3216 60.183C38.5449 60.6292 29.8202 60.7803 26.265 59.4669C24.1156 58.6732 22.255 56.0387 20.7032 54.2769C18.929 52.2629 17.2107 50.4772 15.6974 48.5498C14.9464 47.3062 13.7846 46.4588 12.7314 45.5073C11.9206 45.2761 11.5658 44.6044 11.0628 44.0755C10.3369 43.2252 9.53358 42.4497 8.65276 41.749C7.98844 40.9582 7.24702 40.2425 6.42811 39.6016C4.394 37.687 2.5849 35.556 0.680908 33.5166C10.2676 24.5759 20.5497 16.3054 23.8558 1.30191C28.9787 1.05713 33.6793 0.404761 38.873 0.228338C39.9236 0.228338 40.9742 0.228338 42.0248 0.228338C42.8938 0.112392 44.2447 0.462376 44.8059 0.0494091C46.0419 0.0494091 47.2779 0.0494091 48.5138 0.0494091C49.8425 0.1378 51.6838 -0.268024 52.221 0.585823Z" fill="white"/>
</svg>
